<?xml version="1.0" standalone="no"?>
<!DOCTYPE svg PUBLIC "-//W3C//DTD SVG 1.1//EN" "http://www.w3.org/Graphics/SVG/1.1/DTD/svg11.dtd" >
<svg xmlns="http://www.w3.org/2000/svg" xmlns:xlink="http://www.w3.org/1999/xlink" version="1.1">
<metadata>
Created by FontForge 20170731 at Mon Sep 14 09:13:31 2020
 By Aleksey,,,
</metadata>
<defs>
<font id="AkshatSans-Regular" horiz-adv-x="250" >
  <font-face 
    font-family="Akshat Sans"
    font-weight="400"
    font-stretch="normal"
    units-per-em="1000"
    panose-1="2 0 5 3 0 0 0 0 0 0"
    ascent="800"
    descent="-200"
    x-height="471"
    cap-height="605"
    bbox="33 -118 657.125 711"
    underline-thickness="50"
    underline-position="-200"
    unicode-range="U+000D-00A1"
  />
<missing-glyph horiz-adv-x="364" 
d="M33 0v666h265v-666h-265zM66 33h199v600h-199v-600z" />
    <glyph glyph-name=".notdef" horiz-adv-x="364" 
d="M33 0v666h265v-666h-265zM66 33h199v600h-199v-600z" />
    <glyph glyph-name=".null" 
 />
    <glyph glyph-name=".null" 
 />
    <glyph glyph-name="nonmarkingreturn" horiz-adv-x="333" 
 />
    <glyph glyph-name="CR" unicode="&#xd;" 
 />
    <glyph glyph-name="space" unicode=" " 
 />
    <glyph glyph-name="exclam" unicode="!" horiz-adv-x="205" 
d="M80 189q-2 0 28 7h1q8 0 27 -25q10 -14 10 -36q0 -19 -15 -37q-14 -15 -30 -15t-32 16q-14 15 -14 23q0 1 2 17q4 25 15 37q3 3 4.5 5l3 4t1.5 2.5t-1 1.5zM80 631q10 4 14 4t15 -5q26 -12 35.5 -40.5t9.5 -105.5q0 -66 -2 -111q-3 -93 -11 -107q-6 -10 -31 -15
q-12 -2 -17 -2q-25 0 -38 27q-5 11 -5 35q0 3 2 67q2 60 2 74q0 17 -1 18q-3 5 3 19q5 12 5 32q0 18 -1 31q-1 10 -1 26q0 45 21 53z" />
    <glyph glyph-name="quotedbl" unicode="&#x22;" horiz-adv-x="314" 
d="M194 599q12 7 18 7q11 0 25 -14q19 -19 23 -30t4 -48v-29q0 -53 -2 -65t-11 -27q-10 -17 -17 -17q-5 0 -9 1q-14 2 -20 7t-14 19q-14 29 -14 99q0 54 3 72t14 25zM74 608q8 3 15 3q25 0 41 -31q10 -20 10 -70t5 -65q5 -16 -4 -28q-14 -20 -41 -20q-21 0 -32 14
q-17 21 -17 87v17q1 52 5 69.5t18 23.5z" />
    <glyph glyph-name="dollar" unicode="$" horiz-adv-x="354" 
d="M170 700q10 11 19 11q6 0 10 -1q35 -4 47 -50q7 -30 7 -36q0 -38 21 -47q26 -12 26 -25q0 -4 -3 -10q-5 -10 -23 -20l-17 -9v-47q0 -48 8 -61q21 -37 21 -68q0 -24 -11 -43q-26 -46 -26 -62q0 -8 1 -14v-9q0 -24 -7 -53t-14 -34q-11 -8 -28 -8q-16 0 -27 5
q-19 8 -26.5 15.5t-10.5 23.5q-2 12 -4.5 15t-13.5 5q-43 8 -43 15q0 4 -11 13q-10 9 -13 31q-1 6 -1 13q0 10 11 20q12 11 24 11q8 0 14 -1q5 -1 12 -1q14 0 21 5q19 14 19 57v20l-27 12q-23 11 -42.5 28.5t-21.5 30.5q-1 7 -4 17.5t-3 16.5q0 10 10 34q24 58 71 76l23 8
v51q0 37 2 46.5t10 18.5z" />
    <glyph glyph-name="percent" unicode="%" horiz-adv-x="527" 
d="M369 346q18 6 46 6q29 0 35 -6q8 -8 8 -13q0 -6 6 -8q9 -5 9 -29q0 -38 -15 -58q-6 -8 -26.5 -16t-34.5 -8q-11 0 -22 9q-12 11 -13 35q0 10 -6 31.5t-6 30.5q0 20 19 26zM82 539q11 7 27 7t34 -19q22 -22 22 -45t-25 -52q-10 -12 -33 -15q-5 -1 -13 -1q-12 0 -25 9
q-12 8 -14 13t-2 27q0 57 29 76zM345 614q11 9 31 9h22l11 -23q11 -24 11 -35q0 -15 -15 -32q-10 -10 -22 -34q-12 -26 -62 -112q-15 -28 -15 -32q0 -6 -7 -15q-5 -6 -35.5 -64t-34.5 -64q-29 -42 -40.5 -52t-32.5 -10q-31 0 -31 26q0 34 65 160q46 88 54 99q12 18 12 22
q0 8 13 21q16 18 41.5 64.5t25.5 58.5q0 4 9 13z" />
    <glyph glyph-name="quotesingle" unicode="'" horiz-adv-x="203" 
d="M84 626q12 9 29 7q17 -3 21 -6t11 -17q8 -18 8 -29q0 -13 -6 -45q-1 -9 -5.5 -33.5t-5.5 -34.5q-5 -35 -16 -46q-16 -16 -31 -16q-27 0 -36 44q-2 12 -2 19q0 16 9 74q8 50 12 63t12 20z" />
    <glyph glyph-name="comma" unicode="," horiz-adv-x="225" 
d="M101 181q10 10 19 10q8 0 26 -8q10 -4 18 -19.5t8 -28.5q0 -14 -8.5 -46.5t-15.5 -44.5q-19 -33 -52 -33q-21 0 -35 22q-7 10 -7 21q0 10 6 22q21 43 26 74q3 19 15 31z" />
    <glyph glyph-name="hyphen" unicode="-" horiz-adv-x="334" 
d="M62 320q6 5 92 5h32q54 0 64.5 -2t19.5 -13q11 -12 11 -20q0 -6 -1 -9q-4 -17 -9 -22q-5 -6 -27.5 -14.5t-32.5 -8.5h-3q-14 4 -44 5q-83 6 -100 17q-13 10 -13 33q0 22 11 29z" />
    <glyph glyph-name="period" unicode="." horiz-adv-x="207" 
d="M89 188q13 5 21 5q18 0 33 -18q11 -13 11 -20q0 -5 -10 -27q-8 -16 -22 -26.5t-27 -10.5q-12 0 -23.5 9t-14.5 21t-3 22q0 29 35 45z" />
    <glyph glyph-name="zero" unicode="0" horiz-adv-x="461" 
d="M274 517q-25 11 -53 11q-19 0 -28 -4q-13 -5 -32 -24q-12 -11 -16 -18.5t-8 -26.5t-4 -51q0 -71 13 -100q21 -50 47 -78.5t51 -28.5q6 0 8 1q19 4 28.5 15t18.5 39q18 59 22 137q2 30 2 36q0 21 -6 39q-8 23 -16 33t-27 20zM196 614q7 1 16 2t14 1.5t8 0.5q9 0 9 -4t7 -4
q8 0 38 -11t48 -21q42 -22 61 -70q9 -22 10.5 -35t1.5 -65q0 -70 -9 -116q-7 -34 -19 -70t-19 -43q-5 -5 -5 -10q0 -7 -20.5 -23t-43.5 -27q-30 -15 -55 -15q-28 0 -36 5q-50 28 -76 54q-40 43 -59 94q-16 42 -16 111q0 18 1 27l2 52q0 11 -3 25q-1 2 -1 6q0 24 31.5 64.5
t64.5 56.5q23 11 50 15z" />
    <glyph glyph-name="one" unicode="1" horiz-adv-x="196" 
d="M51 176q0 24 3.5 93.5t3.5 89.5q0 7 -2 117v47q0 45 3.5 55t19.5 17q12 6 19 6q6 0 19 -6q16 -7 22 -20q7 -18 7 -166q0 -85 -1 -134q-2 -108 -7 -129t-29 -31q-13 -6 -18 -6q-3 0 -21 8l-20 10z" />
    <glyph glyph-name="two" unicode="2" horiz-adv-x="528" 
d="M159 614q18 2 30 2q32 0 35 -5q1 -2 15 -7q32 -7 53 -39q11 -16 12 -49v-9q0 -43 -16 -102q-15 -57 -81 -144q-15 -21 -15 -29q0 -16 79 -16q58 0 99 10q51 12 71 12q15 0 21.5 -6t9.5 -21q1 -3 1 -8q0 -21 -17 -39t-39 -18q-13 0 -49 -9q-36 -10 -109 -10q-42 0 -64 5
q-11 3 -55 14q-40 10 -58.5 21.5t-24.5 28.5q-3 8 -3 11q0 6 10 19q14 16 24 21q14 7 49 52.5t48 73.5q30 62 30 116q0 16 -5 28q-11 20 -32 20q-13 0 -51 -10q-18 -5 -29 -5q-23 0 -32 19q-7 15 0 25q25 37 93 48z" />
    <glyph glyph-name="three" unicode="3" horiz-adv-x="362" 
d="M128 547q-20 0 -38 9.5t-18 26.5q0 11 8.5 23t17.5 14q14 2 26 2q78 0 128 -24q57 -26 57 -94q0 -43 -42 -93l-19 -22l23 -23q23 -23 31 -41t8 -42q0 -29 -9 -48q-8 -18 -36 -53t-42 -44q-19 -12 -32 -21q-29 -19 -61 -19q-33 0 -58 19q-17 14 -17 34q0 11 7 17
q15 15 57 15h4q22 0 57 35q11 11 23 32.5t12 30.5q0 26 -49 49q-7 3 -17 7.5t-16.5 7.5t-8.5 4q-29 13 -29 35q0 29 48 43q44 13 58 36q16 28 16 43q0 12 -10 21q-5 5 -35.5 12.5t-43.5 7.5z" />
    <glyph glyph-name="four" unicode="4" horiz-adv-x="387" 
d="M112 640q0 4 16 4q15 0 26 -16q10 -14 10 -43q0 -5 -0.5 -21t-0.5 -29q0 -25 -1 -61t-1 -37l-1 -19l17 1q14 2 35 10t27 15q4 5 -1 25q-5 17 0 28q4 7 6 41q2 29 9 39.5t28 17.5q12 4 22 4q16 0 27 -17q6 -10 6 -82v-100v-171l-11 -10q-11 -11 -11 -16q0 -9 -12 -9
q-7 0 -22 3q-23 4 -30.5 9t-15.5 22q-5 10 -5 26q0 9 2.5 28t2.5 30q0 18 -1 21t-8 1q-63 -19 -94 -30q-9 -4 -20 -4q-18 0 -38 13t-20 32q0 7 1 11q3 7 11 48t8 53v7q0 14 3 33q6 34 6 74q0 64 22 64q8 0 8 5z" />
    <glyph glyph-name="five" unicode="5" horiz-adv-x="398" 
d="M162 608q31 1 51 3.5t38 2.5q52 0 52 -35q0 -11 -6 -26q-7 -17 -23.5 -23t-53.5 -6h-42l-3 -16q-1 -4 -1 -18t1 -20q0 -2 1 -6t1 -5.5t1 -4t1.5 -3t2 -1.5t3.5 -1.5t5 -0.5q1 0 35 4q6 1 17 1q36 0 67 -34q19 -21 28 -51q7 -24 7 -36q0 -10 -3 -29q-6 -39 -32 -84
q-21 -34 -63 -55q-23 -12 -36.5 -15.5t-44.5 -6.5q-23 -3 -38 -3q-35 0 -58 23q-15 15 -15 28q0 7 5 19q11 21 79 21q67 0 87 25q24 31 24 73q0 7 -2 15q-7 27 -28 27q-11 0 -35 -8q-17 -6 -35 -6q-43 0 -51 21q-9 25 -9 98v11q1 5 1 14q0 28 -15 44q-11 13 -11 28q0 9 7 15
q15 13 29.5 16t61.5 5z" />
    <glyph glyph-name="six" unicode="6" horiz-adv-x="440" 
d="M300 286q2 19 -5 23q-2 1 -8 1q-25 0 -80 -15t-55 -22q0 -4 7.5 -9.5t16.5 -10t11 -6.5q16 -12 52 -14h3q51 0 58 53zM223 598q18 6 40 6q25 0 33 -7q6 -6 6 -19t-18 -28t-32 -18t-36 -20.5t-35 -35.5q-25 -36 -31 -48t-11 -42q0 -2 -0.5 -4.5t-0.5 -3.5q0 -8 9 -8
q6 0 38 8q73 21 117 21q36 0 62 -32q15 -18 20 -52q3 -18 3 -28t-5 -30q-7 -25 -13 -35q-7 -13 -37 -36t-40 -23q-7 0 -9 -4q-4 -6 -53 -11h-8q-22 0 -49.5 5.5t-31.5 11.5q-6 6 -10 6q-7 0 -28.5 17t-26.5 27q-6 10 -16 39q-8 23 -8 63q0 108 42 179q18 31 54.5 60t74.5 42
z" />
    <glyph glyph-name="seven" unicode="7" horiz-adv-x="404" 
d="M65 613q8 9 24 9q14 0 26 -1q99 -5 121 -5q66 -2 86.5 -5.5t20.5 -13.5q0 -8 4 -11q3 -2 3 -12q0 -39 -51 -194q-46 -137 -58 -145q-3 -2 -9 -26q-4 -18 -18 -41q-8 -12 -13.5 -15t-24.5 -5q-22 -3 -31 0q-7 4 -12 19t-5 27q0 10 4 13q5 2 14 23q31 58 48.5 103t50.5 156
q9 27 9 45q0 4 -1 4h-4q-4 1 -12 1.5t-17 1t-21.5 1t-24.5 1.5q-106 4 -106 19q0 4 -6 10t-6 17q0 15 9 24z" />
    <glyph glyph-name="eight" unicode="8" horiz-adv-x="392" 
d="M188 266q-21 15 -27 15t-15 -14t-9 -24t14 -24t34 -14q18 0 27 9q8 8 8 15q0 14 -32 37zM252 511q-2 5 -15 5q-31 0 -68 -21q-27 -16 -27 -43q0 -9 1 -14q6 -30 21 -30q9 0 26 11q15 11 29.5 24t14.5 17q0 5 5 10q14 16 14 37q0 1 -1 3v1zM65 290q0 3 10.5 26t10.5 26
q0 7 -12 31q-13 27 -13 70q0 45 10 64q5 10 15 19.5t15 13.5t22 16l17 12q19 13 28 15q7 1 13.5 6t19.5 5q19 0 28 3q11 4 23 4q18 0 43 -16q24 -16 32 -27.5t10 -33.5q0 -1 0.5 -5t0.5 -6q0 -47 -17 -64q-9 -9 -21 -27q-13 -18 -28 -33q-12 -13 -18 -29q-4 -16 -8 -16
q-10 0 -1 -10l10 -8q12 -8 27.5 -23.5t21.5 -27.5q7 -16 7 -31q0 -47 -31 -75q-16 -14 -19 -17q-5 -4 -19 -11.5t-18 -7.5q-6 0 -18 -6q-12 -5 -20 -5q-3 0 -17 2q-85 16 -114 99q-4 16 -4 21q0 15 10 34q4 8 4 12z" />
    <glyph glyph-name="nine" unicode="9" horiz-adv-x="440" 
d="M279 518q0 4 -13 4q-32 -1 -69 -28t-53 -61l-10 -22l10 -8q12 -9 21 -6q16 4 48.5 30t32.5 34q0 3 10 13q7 5 15 20.5t8 23.5zM318 600q15 6 23 6q7 0 18 -6q11 -5 15 -17t11 -55q5 -38 5 -57q0 -15 -1 -23q-1 -10 -1 -37q0 -28 1 -40q1 -9 1 -37q0 -115 -7 -148
q-3 -12 -24.5 -28t-40.5 -16q-13 0 -21 8q-13 13 -13 34q0 11 3 29q7 45 7 161q0 25 -1 25q-2 0 -32 -26q-62 -54 -106 -54q-8 0 -20 4q-6 2 -28 9q-32 9 -47 52q-6 18 -6 26q0 9 4 28q5 19 10.5 29.5t16 22.5t17.5 21q13 17 40.5 40t41.5 28q7 3 37 10q9 2 19 2q11 0 27 -8
q18 -8 22 -8q6 0 11 11q3 9 18 14z" />
    <glyph glyph-name="colon" unicode=":" horiz-adv-x="199" 
d="M76 184q10 7 24 7q18 0 33 -13q9 -9 9 -19q0 -1 -0.5 -4.5t-0.5 -5.5q-3 -34 -33 -49q-13 -7 -17 -7q-5 0 -15 6q-16 7 -22 27q-2 6 -2 16q0 27 24 42zM78 476q10 7 19 7q10 0 26 -10q25 -15 25 -35q0 -7 -3 -16q-9 -29 -45 -34q-4 -1 -10 -1q-10 0 -21 11q-15 15 -15 36
q0 26 24 42z" />
    <glyph glyph-name="semicolon" unicode=";" horiz-adv-x="215" 
d="M101 211q6 2 19 2q20 0 32.5 -10.5t12.5 -26.5q0 -20 -11 -59t-21 -56q-12 -19 -42 -19q-7 0 -10 1q-12 4 -19.5 20.5t-7.5 34.5q0 12 5 24q4 6 14 39q15 46 28 50zM89 495q13 10 29 10q17 0 30 -12.5t16 -32.5q1 -5 1 -12q0 -8 -16 -24q-15 -15 -25 -15q-7 0 -11 1
q-15 2 -23 8t-15 21q-5 12 -5 22q0 21 19 34z" />
    <glyph glyph-name="equal" unicode="=" horiz-adv-x="463" 
d="M130 307q41 0 137 10q62 6 76 6h4q62 0 62 -49v-9q-2 -23 -7 -28q-12 -15 -91 -15q-53 0 -119 -7q-36 -4 -62 -4q-9 0 -10 1q-2 3 -24 9q-17 5 -30.5 16.5t-13.5 22.5q0 9 19 28l18 18zM145 434q30 1 82 1q112 0 130 -8q22 -9 22 -28q0 -2 -2 -8q-4 -8 -4 -21t-14 -19
q-18 -8 -46 -8q-17 0 -92 5q-88 5 -115 9.5t-38 15.5q-13 14 -13 24q0 9 11 16q18 13 31 16.5t48 4.5z" />
    <glyph glyph-name="question" unicode="?" horiz-adv-x="342" 
d="M134 179q0 4 5 4t31 -6q12 -2 25 -13q11 -11 11 -31t-12.5 -32.5t-33.5 -14.5h-6q-13 0 -27 15q-14 14 -14 29q0 11 6.5 29t10.5 18h1q3 -3 3 2zM132 623q14 3 27 3q21 0 38 -7q20 -9 31 -11q25 -5 42.5 -36.5t17.5 -67.5q0 -11 -4 -29q-6 -23 -22 -53.5t-28 -40.5
q-22 -21 -22 -51q0 -16 1 -26q2 -34 2 -37q0 -21 -8 -30q-12 -13 -30 -13q-4 0 -16 2q-26 5 -32.5 20.5t-10.5 84.5q0 13 -1.5 32.5t-1.5 26.5q0 23 5.5 31t23.5 19q20 11 30 36q10 24 10 31q0 15 -19 15q-14 0 -42 -8.5t-31 -8.5q-16 0 -27 15t-11 36q0 23 24 38
q8 4 16.5 11t16.5 11t21 7z" />
    <glyph glyph-name="A" unicode="A" horiz-adv-x="546" 
d="M312 465q-11 37 -18 37q-4 0 -7 -8q-50 -114 -50 -134l1 -1v-2q2 -2 19 -2q66 0 73 7q1 1 1 7q0 36 -19 96zM152 402q0 4 10.5 30t10.5 30q0 9 10 27t23 52q30 79 36 89q14 17 30 17q8 0 21 -5q31 -13 65 -60t48 -98q3 -8 15 -68q10 -52 47 -162q10 -30 19 -73
q5 -27 5 -31q0 -8 -6 -22q-6 -13 -11 -16.5t-23 -8.5q-19 -6 -25 -6q-3 0 -13 5q-24 14 -24 48q0 2 0.5 6.5t0.5 7.5q0 20 -10 54l-12 40l-55 1q-89 2 -97 14q-3 4 -6 4q-15 0 -42 -76q-12 -34 -30.5 -61t-33.5 -34q-8 -4 -16 -4q-22 0 -29 26q-5 17 -5 23q0 9 8 33
q55 147 78 192q2 5 5 11t4.5 10t1.5 5z" />
    <glyph glyph-name="B" unicode="B" horiz-adv-x="420" 
d="M212 303q-36 17 -46 18l-15 3l-3 -29q-1 -23 -6 -55q-2 -20 -2 -25q0 -17 9.5 -22t39.5 -5q15 0 21.5 4t26.5 23q27 27 27 36q0 26 -52 52zM245 505q-7 3 -15 3q-9 0 -29 -4q-28 -5 -35 -10.5t-9 -23.5q-2 -14 -2 -35t5 -24q2 -1 7 -1q14 0 25 9q47 39 47 46q0 6 8 12
q8 7 8 15q0 9 -10 13zM323 343q0 -2 10.5 -12.5t10.5 -13.5q0 -4 6 -10q6 -8 13 -29q4 -12 4 -24q0 -23 -26 -63q-15 -23 -42 -48t-46 -33q-10 -4 -36 -9.5t-37 -5.5q-9 0 -28 9.5t-19 14.5t-8 9t-16 4q-1 0 -2.5 -0.5t-2.5 -0.5q-9 -4 -25 0q-11 2 -15.5 5.5t-8.5 16.5
q-5 11 -5 31q0 28 5 86q8 104 8 169q0 26 -2 68q0 3 -0.5 9t-0.5 8q0 24 10 33.5t44 20.5q17 4 49 17q20 9 47 9h24q48 -2 71.5 -15t42.5 -50q8 -15 8 -27q0 -9 -1 -15q-5 -47 -51 -103l-17 -21l9 -7q11 -9 18 -13q9 -5 9 -10z" />
    <glyph glyph-name="C" unicode="C" horiz-adv-x="370" 
d="M248 611q16 2 20 2q11 0 24 -8q13 -9 13 -23q0 -31 -47 -53q-17 -8 -50 -40.5t-41 -49.5q-27 -56 -27 -131v-5q2 -38 17 -67q14 -28 32 -38t60 -14q31 -3 44 -8.5t20 -18.5q6 -11 -3 -25q-17 -27 -43 -32q-5 -1 -18 -1q-60 0 -92 17q-17 8 -38.5 28t-31.5 36
q-18 30 -30 84q-3 16 -3 51q0 88 10 98q2 2 1.5 9t2.5 9q5 2 5 10t14 34t25 39q6 6 24 27q14 17 55 42.5t57 27.5z" />
    <glyph glyph-name="D" unicode="D" horiz-adv-x="509" 
d="M351 443q-26 29 -86 29q-19 0 -39 -3q-41 -7 -48.5 -12.5t-9.5 -30.5q-21 -193 -21 -238l-1 -23h22q40 0 109 51q21 16 30.5 27.5t24.5 41.5q33 65 33 115q0 21 -2 27t-12 16zM245 572q0 2 8 2q3 0 43 -4q57 -5 95 -31q19 -13 39.5 -43t23.5 -49q2 -18 2 -31
q0 -67 -17 -116q-22 -66 -38 -82q-9 -12 -12 -17q-10 -19 -30.5 -39.5t-38.5 -29.5q-17 -8 -39 -20.5t-48 -24.5q-36 -16 -50 -16q-2 0 -5.5 0.5t-5.5 0.5q-22 2 -36 11q-14 8 -39 10q-24 0 -31 7q-5 4 -9.5 22t-4.5 32q0 2 0.5 4.5t0.5 3.5q12 73 32 296q8 81 13.5 97.5
t27.5 16.5q27 0 36 -13q2 -2 7 -2q22 0 22 7q0 2 6 1t6 3q0 3 8 3q4 0 13.5 -1t13.5 -1q7 0 7 3z" />
    <glyph glyph-name="E" unicode="E" horiz-adv-x="409" 
d="M246 607q0 3 7 3q6 0 6 -6q0 -7 7 -7q10 0 20 -12q10 -11 10 -23q0 -9 -3 -42q-1 -5 -22 -16.5t-29 -11.5q-9 0 -22 5t-16 9q-2 4 -30 2l-27 -1l1 -38q0 -34 3 -40q0 -1 4 -1q7 0 35 4q40 6 69 6q23 0 30.5 -1.5t17.5 -9.5q16 -12 16 -26q0 -5 -1 -8q0 -1 -1 -6t-1 -8
q-4 -18 -19.5 -25t-53.5 -10q-96 -9 -102 -15q-3 -3 -7 -57q-1 -17 -1 -37q0 -17 6 -19q2 -1 8 -1q28 0 90 20q45 14 71 14q17 0 29 -7q14 -10 14 -20q0 -6 -3 -16q-9 -36 -54 -53q-89 -33 -148 -33q-11 0 -14 1q-9 3 -38 3q-28 0 -38 9q-7 6 -8.5 15t-1.5 54q0 39 2.5 87
t6 105t4.5 87l2 76l17 20q11 13 18 17t25 7q14 3 74 3q47 0 47 3z" />
    <glyph glyph-name="F" unicode="F" horiz-adv-x="369" 
d="M187 633q27 6 47 6q37 0 60 -22q12 -12 12 -25v-6q-1 -18 -14 -31q-17 -16 -34 -16q-7 0 -16 3t-19 3q-4 0 -22 -2q-3 -1 -9 -2t-8 -1.5l-6 -1.5t-5 -2t-3.5 -2t-3 -3.5t-1.5 -5t-1.5 -6.5l-1 -8t-0.5 -11q-2 -41 -5 -63q-1 -8 -1 -20q0 -19 13 -19q3 0 29 6q31 9 64 9
q22 0 32 -5q9 -5 16 -18q4 -8 4 -14q0 -7 -4 -18q-8 -20 -25 -27q-18 -8 -27 -8q-14 0 -58.5 -11.5t-48.5 -16.5q-5 -7 -8 -72q-2 -60 -8.5 -74t-31.5 -18q-12 -2 -14 -2q-9 0 -17 7q-20 14 -20 58q0 19 7 91q16 159 20 222q4 55 11 75t27 33q17 12 32 12q10 0 38 6z" />
    <glyph glyph-name="G" unicode="G" horiz-adv-x="570" 
d="M327 618q0 4 2 4t20 -6q37 -12 37 -32q0 -7 -7 -23q-11 -23 -46 -23q-15 0 -67.5 -27.5t-52.5 -35.5q0 -2 -8 -6q-26 -8 -67 -108q-8 -19 -8 -57q0 -42 10 -61q7 -14 14 -21t41 -40l27 -25l25 3q26 2 31 7q7 6 15.5 36.5t10.5 58.5q0 3 0.5 9t0.5 9q0 33 -13 75
q-3 7 -3 13t14 27q12 17 17.5 20.5t24.5 5.5q29 3 56 3q32 0 45 -4q39 -7 54 -21l14 -13l-1 -70v-29q0 -50 3 -62q2 -6 2 -16q0 -11 -14 -31q-14 -19 -38 -19q-12 0 -21 6q-14 10 -18.5 29.5t-4.5 69.5q0 43 -1.5 52.5t-7.5 10.5q-8 2 -19 -3q-9 -3 -9 -18v-17v-9
q0 -27 -6 -69.5t-11 -55.5q-4 -7 -17 -25q-12 -16 -12 -17q0 -5 -21.5 -16t-40.5 -16q-22 -5 -37 -5q-31 0 -60 19q-16 10 -40 34.5t-24 30.5q0 4 -14 20q-48 56 -48 138q0 36 12 68q10 27 24 56t18 31q5 3 12 21q8 17 19 27.5t44 32.5q26 17 64 36.5t45 19.5q5 0 5 4
q0 3 6 3q3 0 9 -1t9 -1q6 0 6 3z" />
    <glyph glyph-name="H" unicode="H" horiz-adv-x="544" 
d="M115 605q6 2 17 2q18 0 28 -13l10 -11l-3 -86q-2 -50 -2 -56q0 -29 13 -29q2 0 38 8q51 12 90 12q21 0 26 -4q29 -19 52 -23l18 -3l-6 144l14 11q13 10 25 10q8 0 19 -4q23 -9 34 -51q5 -23 5 -87q0 -44 -4 -98q-3 -28 -8 -109q-3 -62 -6 -72q-4 -9 -17 -15t-27 -6
q-11 0 -18 4q-13 7 -16.5 23.5t-3.5 63.5q0 19 0.5 46.5t0.5 29.5q1 12 -1 15t-13 5q-58 14 -69 25q-7 7 -14 7q-4 0 -37 -5q-42 -7 -45 -12q-2 -3 -9.5 -2.5t-8.5 -0.5q-3 -5 -22 -10l-21 -6l-5 -27q-2 -11 -6 -48t-9 -64t-13 -32q-6 -4 -27 -4t-31 11q-7 7 -8.5 15.5
t-1.5 42.5q0 48 7 83q9 44 26 229q5 58 10 72.5t19 18.5z" />
    <glyph glyph-name="I" unicode="I" horiz-adv-x="317" 
d="M125 601q68 4 74 4q38 0 53 -19q10 -13 10 -26q0 -8 -4 -11t-4 -10q1 -4 -6 -10.5t-17 -13t-11 -7.5q-2 -1 -6.5 -4t-6.5 -4q-5 -3 -6.5 -23t-3.5 -118q-2 -90 -5 -116q-2 -22 -2 -23q0 -10 9 -15q11 -5 18 -20q4 -8 4 -19q0 -39 -45 -61q-34 -17 -79 -17q-21 0 -27 5
q-8 6 -13 23q-3 9 -3 18q0 23 25 38l17 9l5 72q13 190 13 232v7q-2 11 -5 13.5t-16 4.5q-20 4 -27.5 13t-9.5 32q-1 6 -1 15q0 11 7 14q9 4 12 8q4 6 51 9z" />
    <glyph glyph-name="J" unicode="J" horiz-adv-x="548" 
d="M242 691q15 13 31 13q13 0 24 -9q12 -9 32 -9q26 0 64 -5t39 -8q1 -4 8 -4t23 -11t22 -20q5 -8 5 -12t-5 -17q-12 -37 -86 -43q-12 -1 -33.5 -3t-25.5 -2l-19 -2l-1 -125q-1 -174 -11.5 -251t-39.5 -127q-4 -6 -12 -22t-11 -20q-30 -56 -69 -56q-15 0 -32 9
q-9 4 -11.5 10t-6.5 26q-1 4 -1 10q0 8 12 19q35 32 44 49q6 11 18 30q19 29 24 90q11 129 11 294v16l-3 30l-19 -2q-22 -2 -67 -2h-22q-28 0 -42 9q-26 19 -26 40q0 4 2 6q5 5 19 10q14 4 17 15q5 19 44 19q30 0 48 5q14 4 17.5 6.5t4.5 10.5q2 10 11 16q2 1 23 17z" />
    <glyph glyph-name="K" unicode="K" horiz-adv-x="494" 
d="M371 595q14 7 16 7q9 0 22 -12.5t20 -26.5l9 -20l-8 -17q-9 -18 -45 -46q-13 -10 -40 -33.5t-46 -34.5q-13 -8 -18 -16q-1 -2 -21 -15.5t-20 -16.5q0 -5 16.5 -19t34.5 -25q44 -25 74.5 -55.5t30.5 -49.5q0 -12 -11 -25.5t-24 -17.5q-17 -5 -24 -5q-16 0 -41 33
q-9 13 -34 29q-19 12 -66 47q-38 29 -42 29h-1q-10 -8 -10 -115q0 -45 -10 -61q-10 -15 -27 -16h-5q-16 0 -29.5 6.5t-17.5 16.5q-2 4 -2 21q0 23 2 41q10 119 15 212q5 133 17 152q8 12 29 12q10 0 17 -4q24 -16 24 -97q0 -45 3 -46h1q8 0 49 29q25 17 71.5 56t59.5 55
q21 23 31 28z" />
    <glyph glyph-name="L" unicode="L" horiz-adv-x="506" 
d="M112 579q15 5 19 5q7 0 16 -7q13 -11 18 -24t7 -44v-15q0 -47 -7.5 -130t-14.5 -100q-5 -15 -5 -34q0 -18 -3 -30q-2 -8 0 -15q2 -8 27 -7q18 1 71 12q78 17 131 17q21 0 29 -2q46 -11 52 -43q0 -2 0.5 -5t0.5 -4q0 -23 -22 -40q-11 -9 -17 -9q-5 0 -14 3q-18 5 -37 5
q-43 0 -121 -20q-27 -7 -93 -7q-57 0 -69 4.5t-19 26.5q-8 29 -8 86q0 40 4 65q16 103 21 141q3 25 7 94q3 61 9 67q5 5 18 10z" />
    <glyph glyph-name="M" unicode="M" horiz-adv-x="489" 
d="M79 611q4 1 12 1q18 0 33.5 -9.5t19.5 -24.5q1 -8 12 -27q11 -17 11 -20q0 -4 14.5 -26.5t21.5 -29.5q11 -11 14 -15q10 -13 17 10q4 16 21 34t28 18q21 0 47 -22.5t37 -49.5q6 -17 13 -26q7 -8 29 -95t26 -120q1 -6 1 -15q0 -11 -6 -20q-9 -11 -14 -11t-19 -6
q-12 -6 -27 -6q-10 0 -17 3q-11 6 -19 62q-7 50 -20.5 106t-18.5 56q-2 0 -15 -9q-10 -7 -39 -13q-9 -2 -21 -2t-23 5q-20 11 -24 15q-6 8 -10 8q-9 0 -10 -60q-5 -184 -20 -201q-11 -11 -46 -11q-14 0 -18 2q-11 4 -15 12t-4 31q0 21 10 139q1 13 1 141q0 29 -0.5 61
t-0.5 53.5v25.5q0 32 19 36z" />
    <glyph glyph-name="N" unicode="N" horiz-adv-x="536" 
d="M403 605q14 8 23 8q16 0 40 -28q16 -19 16 -38q0 -17 -14 -68q-5 -20 -8 -30.5t-4.5 -22t-2.5 -17.5t-2.5 -24t-3.5 -34q-7 -77 -29 -209q-2 -14 -8.5 -24t-13.5 -10q-8 0 -10 -3q0 -4 -24 -2l-23 3l-51 76q-56 81 -64 97q-10 19 -44 69.5t-38 52.5q-1 1 -2 1
q-2 0 -2 -45v-93q0 -119 4 -135q4 -12 -3 -30q-6 -15 -26 -20q-12 -3 -22 -3q-21 0 -31 16q-6 10 -7 29.5t-1 108.5q0 38 -1 107.5t-1 83.5v35q0 54 6 90q2 13 15.5 26t24.5 13q37 0 101 -106q5 -7 7 -11q3 -6 51 -76.5t52 -78.5q9 -16 26.5 -41t20.5 -25q6 0 25 175
q7 55 7 99q0 16 -2 28t-2 17q0 27 21 39z" />
    <glyph glyph-name="O" unicode="O" horiz-adv-x="622" 
d="M398 480q0 4 -15 7t-39 4.5t-47 3t-46 2.5t-29 1l-26 3l-22 -27q-22 -27 -35 -60q-11 -30 -11 -48q0 -14 1 -23q4 -60 22.5 -88t63.5 -51q26 -13 36.5 -15.5t38.5 -2.5q56 0 110 34q19 12 31 26.5t26 43.5q16 33 16 72q0 17 -3 35q-9 48 -54 71q-18 9 -18 12zM141 598
q15 11 22 10q8 -2 43 -2q47 0 87 1h13q24 0 31 -6q9 -7 33 -9q80 -8 133 -61q47 -47 55 -104q0 -2 3.5 -21.5t5.5 -28.5q4 -22 4 -27q0 -12 -6 -34q-22 -93 -79 -143q-38 -33 -100 -57q-40 -15 -100 -15q-29 0 -48 4q-21 4 -28 6t-18 9t-20 11q-25 14 -42.5 31.5t-39.5 49.5
q-23 35 -29.5 60.5t-6.5 84.5q0 48 1.5 60.5t9.5 30.5q27 60 57 96q10 13 8 27q-1 4 -1 10t12 17z" />
    <glyph glyph-name="P" unicode="P" horiz-adv-x="409" 
d="M211 542q-31 11 -55 11q-7 0 -15 -2l-10 -4l2 -58q3 -48 3 -97q0 -39 7 -41q8 -3 17 8q10 11 33 11t36 14q32 34 32 80q0 60 -50 78zM127 642q21 6 53 6q28 0 48 -6q22 -7 22 -10t12 -8q16 -7 34.5 -22.5t22.5 -24.5q8 -16 10 -18q19 -23 25 -82q0 -2 0.5 -5.5t0.5 -5.5
q0 -14 -3 -29t-8 -32t-6 -24q-8 -33 -55 -73q-23 -19 -31 -23t-28 -6q-6 -1 -20 -1q-20 0 -36 3q-28 5 -30 3q-1 -7 -1 -18q0 -34 3 -90q3 -64 3 -85q0 -25 -7 -32q-8 -8 -8 -13q0 -6 -12.5 -14t-20.5 -8q-9 0 -26 11l-17 11v156q0 156 -1 158l-1 2v5v7q0 10 2 48
q9 146 9 152q0 34 28 51q24 13 38 17z" />
    <glyph glyph-name="Q" unicode="Q" horiz-adv-x="578" 
d="M323 546q-20 18 -23 18l-7 -7q-6 -6 -12 -6q-9 0 -28.5 -10t-32.5 -22q-24 -21 -53 -80q-17 -36 -25 -121q-2 -28 -2 -37q0 -35 11 -55.5t38 -37.5q35 -22 80 -29q24 -5 24 1q0 4 15 2q17 -2 17 5t-13 48q-12 37 -19 70q-3 20 -8.5 33.5t-8.5 28.5q-4 22 -4 23q0 6 5 18
q5 11 16.5 18.5t22.5 7.5h5q25 -7 39 -65q8 -31 23 -73t21 -51q4 -6 8 -6q6 0 20 30q8 19 8 36q0 12 -1 21q-2 34 -17 80t-34 77q-1 2 -2.5 4.5t-2.5 4t-2 3.5t-2 3t-1 2l-1 1q0 5 -20 29t-34 36zM249 679q12 2 17 2q35 0 89 -42q101 -79 158 -246q13 -39 13 -81
q0 -98 -57 -160q-20 -20 -20 -25q0 -4 9 -24q6 -12 6 -21q0 -14 -22 -36q-16 -17 -27 -17h-4q-15 1 -33 25q-12 16 -17.5 20t-14.5 4q-14 0 -26 -6q-11 -6 -50 -6q-62 2 -113 33.5t-79 86.5q-9 17 -16.5 47t-7.5 46q0 6 1 7q2 5 6 48q5 73 36 133q0 1 6 11.5t9 17.5
q17 37 30 54t38 33l32 21v20q0 20 14 36q16 18 23 19z" />
    <glyph glyph-name="R" unicode="R" horiz-adv-x="595" 
d="M277 669q22 2 31 2q27 0 39 -6q8 -4 14 -4q15 0 41 -35t34 -64q4 -13 4 -57q0 -42 -11 -65q-31 -69 -75 -101q-9 -7 -7 -13t125 -114q48 -42 58 -64q9 -18 9 -23q0 -2 -5 -14q-8 -16 -13 -16t-10 -11q-3 -8 -12 -8q-2 0 -6 0.5t-6 0.5q-6 0 -11 -4q-1 -1 -4 -1
q-7 0 -40 34q-34 36 -54.5 57t-39.5 39t-29 27t-37 33.5t-50 45.5q-39 35 -39 46q0 12 4 23t8.5 16.5t7.5 5.5q7 0 12 7t21 4q10 -1 21.5 -2.5t17.5 -2.5t10 -1q11 0 25 13q15 14 30 40.5t17 44.5q0 1 0.5 4t0.5 5q0 10 -8 28q-11 21 -19 27.5t-26 10.5q-11 3 -18 3t-45 -12
q-32 -10 -65 -25l-23 -11l-1 -93q-2 -334 -8 -349q-2 -7 -10 -9t-10 -13q-3 -15 -29 -15q-19 0 -30 10q-15 14 -15 51q0 8 2 42q4 56 4 81q10 313 18 331q7 15 29 25q27 13 35 19q56 47 138 57z" />
    <glyph glyph-name="S" unicode="S" horiz-adv-x="443" 
d="M169 602q74 36 112 36q11 0 17 -1q14 -3 19 -17q6 -16 6 -22q0 -10 -16 -24.5t-27 -14.5q-25 0 -83 -24q-57 -24 -57 -66q0 -7 4 -23q7 -24 30.5 -40.5t86.5 -40.5q43 -17 47 -19q14 -7 29.5 -20t15.5 -18q0 -6 6 -11q9 -7 18.5 -29t11.5 -41q0 -2 0.5 -5.5t0.5 -5.5
q0 -38 -37 -75q-30 -32 -35 -39q-27 -37 -92 -59q-24 -9 -38 -9q-11 0 -18 2q-18 3 -36 12q-13 6 -36.5 29t-23.5 31q0 12 7.5 29t14.5 22q8 7 18 7q11 0 32 -11q35 -19 59 -19q27 0 51 23q37 36 37 57q0 10 -8 23q-6 8 -29.5 23t-30.5 15q-3 0 -17 10q-17 11 -24 12
q-12 4 -43 23t-52 51q-35 53 -35 95q0 76 115 134z" />
    <glyph glyph-name="T" unicode="T" horiz-adv-x="542" 
d="M468 569q0 -6 -6 -13.5t-6 -11.5q0 -5 -9 -7q-13 -3 -151 -9q-20 -1 -26.5 -4.5t-6.5 -14.5q0 -7 1 -11q5 -40 5 -132q0 -206 -12 -247q-11 -34 -48 -34q-14 0 -30 8q-18 9 -18 30q0 9 3 23q19 90 19 249q0 9 -0.5 26t-0.5 25l-3 69l-19 1q-28 1 -55.5 9t-37.5 17
q-11 10 -11 21q0 18 26 35q17 11 26 13t44 2q44 0 163 10t123 14q2 2 12 -1t16 -8q7 -5 7 -13q0 -4 5.5 -14t5.5 -14q0 -5 -7 -8q-9 -2 -9 -10z" />
    <glyph glyph-name="U" unicode="U" horiz-adv-x="489" 
d="M81 597q12 4 15 4q9 0 19 -5q13 -6 19 -26q5 -18 5 -48q0 -43 3 -62q5 -32 7 -61q8 -115 52 -174q20 -26 37 -26q5 0 19 4q18 5 31 19t31 47q34 62 34 101q0 2 -0.5 6.5t-0.5 7.5q-9 96 -18 139q-4 16 -4 28t9 33q4 9 7.5 11t12.5 0q11 -2 16 -5t24 -20
q22 -18 27.5 -43.5t9.5 -121.5q2 -44 2 -50q0 -22 -8 -49q-4 -12 -10 -24.5t-14 -26t-11 -20.5q-17 -38 -21 -38t-4 -6t-21.5 -26t-37.5 -28q-32 -17 -75 -17q-34 0 -67 13q-22 10 -40 33q-36 49 -47 94q-29 118 -29 222q0 17 1 23q7 62 10.5 74.5t16.5 17.5z" />
    <glyph glyph-name="V" unicode="V" horiz-adv-x="514" 
d="M73 578q19 7 20 7q11 0 31 -27.5t20 -43.5q0 -5 10 -29q22 -48 40 -132q8 -40 22.5 -80.5t20.5 -40.5q7 0 21 30q47 95 57 129q8 26 30 75q22 53 22 63q0 17 13 35q4 9 23 9q13 0 24 -6q31 -16 31 -39q0 -16 -10 -36q-13 -27 -16 -29q-7 -5 -19 -32.5t-27 -68.5t-17 -46
q-10 -24 -10 -26t-10 -22q-2 -3 -23 -54q-9 -21 -17.5 -34t-12.5 -21q-9 -17 -22 -34q-16 -19 -40 -22q-14 -2 -17 -2q-11 0 -20 6q-17 9 -44 72q-17 44 -37 134q-15 72 -42 155q-18 52 -18 84q0 7 1 9q3 11 16 17z" />
    <glyph glyph-name="W" unicode="W" horiz-adv-x="651" 
d="M66 614q7 4 15 4q9 0 25 -10q19 -12 23 -26q5 -18 8 -151q2 -147 5 -169q2 -24 7.5 -46t9.5 -22q5 0 24.5 36.5t22.5 50.5q4 20 17 32.5t30 12.5q7 0 15 -3q14 -4 52 -57q49 -70 68 -70q6 0 16 8q21 18 29 43q2 6 15 30q12 20 34 95q25 90 25 158q0 29 11 40q7 8 11 9
t14 -3q15 -6 15 -8q0 -4 6 -4t19 -15q13 -14 13 -37q0 -14 -4 -26q-9 -31 -21 -81q-40 -157 -58.5 -195t-75.5 -85q-14 -10 -25 -13q-12 -4 -26 -4q-10 0 -10 3q0 4 -18 9q-36 10 -76 55q-15 17 -22 17t-13 -13q-25 -59 -55 -81q-21 -15 -45 -15q-22 0 -36 10
q-47 30 -57 161q-4 64 -4 241q0 96 2 97q4 2 4 9t10 13z" />
    <glyph glyph-name="X" unicode="X" horiz-adv-x="479" 
d="M360 595q9 11 27 8q39 -6 39 -31q0 -22 -35 -74q-7 -9 -22 -40.5t-20 -38.5q-10 -17 -10 -25t11 -32q33 -73 51 -127q15 -41 19 -51q6 -15 6 -26q0 -33 -52 -39q-8 -1 -17 -1q-10 0 -15 9q-5 8 -25.5 66t-20.5 65q0 6 -9 23t-12 17q-4 0 -17 -26q-10 -21 -34 -53
q-20 -27 -20 -34q0 -5 -15 -24q-7 -8 -23.5 -39t-20.5 -37q-4 -4 -21 -4q-37 0 -53 11q-15 9 -15 19q0 11 28 51q11 15 23.5 36.5t23.5 36.5q16 20 50 72.5t42 67.5q6 12 6 21q0 11 -14 33q-15 27 -16 30q-6 12 -8 12q-4 0 -6 10q-2 8 -12.5 24.5t-14.5 20.5q-5 3 -15 19
q-9 13 -9 19q0 5 4 13q10 24 25 24q6 0 9 -1q49 -9 99 -100q9 -16 16 -16q6 0 12 13q8 18 30.5 54t30.5 44z" />
    <glyph glyph-name="Y" unicode="Y" horiz-adv-x="451" 
d="M322 552q9 12 25 12q11 0 26 -6q22 -10 22 -30q0 -2 -0.5 -4t-0.5 -4q-5 -25 -29.5 -120.5t-31.5 -131.5q-32 -158 -50 -218q-9 -31 -46 -31h-5q-24 1 -35 13q-12 14 -12 20q0 4 13 49q9 30 15 60t11 50q7 28 14 59q12 56 44 163.5t40 118.5zM62 595q1 2 20 2
q36 0 65 -29q10 -10 37.5 -49.5t36.5 -56.5q2 -3 23 -40q15 -26 15 -40q0 -26 -47 -29h-13q-18 0 -29 11q-5 6 -27 46.5t-25 45.5q-6 9 -21.5 35.5t-23.5 38.5q-17 25 -17 35q0 5 1 9q1 14 5 21z" />
    <glyph glyph-name="Z" unicode="Z" horiz-adv-x="584" 
d="M170 585q12 3 41 3q53 0 88 -7q93 -18 130 -72q24 -33 24 -60q0 -13 -5.5 -28.5t-10 -24t-16.5 -26t-14 -21.5q-15 -25 -81 -104q-31 -38 -31 -41t12 -3h5q16 0 62 4q12 1 42 1t42 -1q34 -2 46 -8.5t23 -25.5q3 -6 3 -13q0 -19 -20 -31q-15 -9 -104 -9q-92 0 -147 -7
q-58 -8 -90 -8q-40 0 -55 10q-22 15 -22 29q0 3 1 10t1 9q0 4 17 15.5t22 11.5t16 9q2 2 17 13.5t25 19.5q104 81 145 164q20 38 20 49q0 23 -14.5 36t-51.5 24q-29 8 -81 8q-13 0 -73 -2q-14 -1 -31 -1q-20 0 -33 11q-16 12 -16 26q0 10 8 18q6 6 31 11.5t48 6.5q15 0 27 4
z" />
    <glyph glyph-name="a" unicode="a" horiz-adv-x="551" 
d="M245 372q5 20 5 25q0 7 -4 7q-3 0 -16 -8q-14 -9 -39 -39t-33 -48q-20 -38 -20 -53l1 -3q2 -2 5 -2q19 0 58 46t43 75zM207 462q15 4 26 4q17 0 35 -18q19 -19 29 -19q25 0 34 -17.5t11 -70.5q1 -65 25 -111q5 -8 14 -8q8 0 21 8q39 26 67 26q13 0 20 -7t7 -23
q0 -12 -4 -23t-29 -31t-47 -30q-20 -9 -49 -9q-18 0 -35 5q-34 11 -57 63q-11 27 -15 31q-3 4 -24 -15q-18 -18 -44 -31q-21 -10 -24 -15q0 -2 -11 -1t-11 -2t-10 -3q-28 0 -52 11q-18 8 -25 30q-5 14 -5 36q0 76 68 149q20 22 20 25q0 8 24 25t41 21z" />
    <glyph glyph-name="b" unicode="b" horiz-adv-x="462" 
d="M111 619q10 3 15 3t18 -8q19 -11 25 -39.5t6 -112.5v-30q0 -108 4 -111h1q5 0 14.5 10.5t9.5 15.5q0 6 20.5 24.5t44.5 34.5q23 15 30.5 18t26.5 3q24 0 36 -6t25 -25q23 -34 23 -112q0 -41 -8 -68q-8 -26 -8 -38q0 -8 -18.5 -37.5t-30.5 -40.5q-23 -20 -65 -20
q-50 0 -78 26q-15 14 -15 24q0 11 17 22q19 11 46 11q20 0 26 2t14 11q13 16 22 51.5t9 65.5q0 34 -12 34q-7 0 -29.5 -16.5t-26.5 -24.5q-3 -6 -26.5 -38t-27.5 -39q-30 -61 -35 -94q-7 -62 -62 -62h-3q-45 2 -45 35q0 5 2 15q11 36 24 167q3 24 3 183q0 109 1.5 131.5
t7.5 26.5q11 7 19 8z" />
    <glyph glyph-name="c" unicode="c" horiz-adv-x="343" 
d="M214 492q16 8 31 8q18 0 29.5 -9.5t11.5 -25.5q0 -17 -24 -42q-111 -119 -111 -179q0 -8 4 -18q11 -27 48 -27q7 0 17 2q12 3 24 3q46 0 46 -35q0 -15 -17 -27q-37 -27 -90 -27q-16 0 -26 5q-4 2 -24 7q-13 2 -34 19.5t-34 36.5q-11 16 -11 45v5q0 57 22 81
q13 16 39 53.5t36 50.5q9 11 19.5 28t19.5 27t24 19z" />
    <glyph glyph-name="d" unicode="d" horiz-adv-x="343" 
d="M183 251q-8 33 -13 38q-1 1 -2 1q-6 0 -11.5 -23t-5.5 -48q0 -35 11 -35q6 0 14 5q12 7 12 25q0 17 -5 37zM190 608q14 15 24 15q1 0 5 -0.5t7 -0.5q21 -2 28 -7t11 -20q7 -24 16 -173.5t11 -256.5q0 -11 -14.5 -25.5t-24.5 -14.5q-6 0 -30 -10q-27 -10 -50 -15
q-22 -4 -26 -4q-7 0 -29 5q-24 6 -33.5 14t-19.5 29q-11 24 -11 59q0 75 39 162q27 59 80 59h16l-2 68q-4 73 -6 81q-3 10 -3 15q0 7 12 20z" />
    <glyph glyph-name="e" unicode="e" horiz-adv-x="439" 
d="M290 398q-6 16 -18 17h-4q-19 0 -43 -24q-34 -34 -34 -58q0 -10 9 -10q11 0 42 9t39 14q13 9 13 29q0 12 -4 23zM204 486q13 13 55 13h22q28 -1 37 -3t23 -12q19 -13 30 -39q17 -43 17 -88q0 -3 -0.5 -7.5t-0.5 -6.5q-1 -19 -16 -34q-20 -20 -75.5 -41t-87.5 -21
q-14 0 -14 -6q0 -12 40 -25q18 -6 39 -6q16 0 27 1q32 2 33 2q13 0 17 -5q5 -7 13 -7q5 0 12.5 -14t7.5 -23q0 -8 -21.5 -20t-36.5 -15q-22 -5 -63 -7q-11 -1 -28 -1q-28 0 -69 23q-19 11 -45.5 43t-33.5 54q-8 23 -19 35q-12 16 -12 22q0 10 9.5 24t17.5 16q10 3 17 22
q23 62 37 78q7 8 29 24.5t26 16.5q6 0 13 7z" />
    <glyph glyph-name="f" unicode="f" horiz-adv-x="412" 
d="M246 707q8 4 21 4q33 0 49 -19q8 -11 10 -28l3 -21l-24 -22q-21 -21 -28 -21h-1q-10 0 -33.5 -38.5t-23.5 -55.5q0 -6 1 -8t4.5 -2t12.5 2q39 6 61 6q19 0 31 -5q10 -4 18.5 -14.5t8.5 -16.5q0 -1 -2 -3q-4 -2 -6 -14q-2 -11 -14.5 -19t-27.5 -8q-24 0 -95 -15
q-19 -4 -23 -21.5t-4 -100.5t-3 -112.5t-13 -39.5q-13 -15 -33 -15h-4q-7 0 -11 -5q-6 -7 -22 8l-17 15q-1 45 -2 133.5t-2 132.5l-11 9q-12 8 -12 25t19 39q18 20 32 23q12 2 16.5 9.5t21.5 53.5q19 49 21 50q4 2 11 16q5 12 32.5 42t38.5 36z" />
    <glyph glyph-name="g" unicode="g" horiz-adv-x="463" 
d="M296 403q-5 0 -11 2h-3q-17 0 -61 -28t-64 -52q-14 -17 -14 -23q0 -4 8 -10q8 -7 23 -7q25 0 55.5 21.5t52.5 55.5q20 29 20 37q0 4 -6 4zM58 340q0 16 40.5 52.5t49.5 36.5q5 0 47 29q23 16 46 20q21 4 37 4q24 0 40 -16q7 -7 9 -7t9 6q10 8 28 8q14 0 27 -5
q20 -8 20 -46q0 -6 -2 -20q-4 -19 -10.5 -83t-8.5 -78q-4 -25 -4 -44q0 -12 -11 -46.5t-22 -56.5q-14 -27 -37.5 -53t-43.5 -36q-38 -19 -87 -24q-26 -2 -33 -2q-37 0 -61 23q-17 16 -17 29t16 25t36 12q15 0 34 -4q4 -1 13 -1q41 0 69 28q39 39 60 145q3 14 3 20q0 9 -5 9
q-4 0 -18 -11q-22 -18 -42 -29q-18 -11 -28 -12.5t-51 -1.5q-55 0 -66 6q-10 5 -26 37q-15 29 -15 40q0 8 1 13q3 18 3 33z" />
    <glyph glyph-name="h" unicode="h" horiz-adv-x="520" 
d="M109 601q9 9 24 9q13 0 27 -8q12 -7 16 -28q4 -22 4 -36q0 -3 -0.5 -15.5t-1.5 -31.5t-1 -35l-2 -67l29 30q54 55 101 55h8q20 -2 44 -13.5t36 -24.5q9 -10 26 -41.5t21 -43.5t13 -37q7 -22 12 -77q2 -34 2 -41q0 -34 -14 -47q-8 -6 -8 -11q0 -7 -10.5 -13t-21.5 -6h-2
q-30 2 -37 15.5t-7 74.5q0 63 -12 101q-12 37 -25 57q-14 18 -19 19q-5 0 -8 -1q-32 -5 -59 -47q-19 -29 -22 -34q-39 -57 -49 -107q-14 -59 -28 -59q-8 0 -10 -4q-4 -4 -31 -4q-20 0 -25.5 2t-13.5 12l-11 14l8 42q23 127 27 269q4 106 7 114q7 12 13 18z" />
    <glyph glyph-name="i" unicode="i" horiz-adv-x="218" 
d="M92 483q12 8 19 8q6 0 23 -7q18 -7 23 -18q3 -8 3 -52q0 -67 -5 -153.5t-10 -90.5l-2 -2q-2 -1 -5.5 -4t-6.5 -5q-12 -9 -34 -9q-15 0 -20 2t-13 11q-11 14 -11 29q0 13 4 29q9 43 15 184q2 47 5 58t15 20zM114 621q10 13 17 13q6 0 10 -1q26 -4 26 -30q0 -13 -8.5 -21.5
t-21.5 -8.5q-10 0 -18 4q-14 8 -14 21q0 11 9 23z" />
    <glyph glyph-name="j" unicode="j" horiz-adv-x="370" 
d="M206 448q0 6 13 18t21 12h2q15 -3 16 -3q9 0 15 -8q7 -9 12 -9q14 0 29 -91q6 -37 6 -87q0 -77 -12 -134q-4 -22 -26 -88q-30 -96 -108 -121q-12 -4 -26 -4q-40 0 -73 35q-16 16 -16 32q0 9 12 39q3 8 18.5 21.5t21.5 13.5q4 0 9 -12q7 -13 16.5 -22.5t15.5 -9.5h2
q6 3 32 54q40 82 40 208q0 56 -11 109q-9 41 -9 47zM247 572q23 24 31 24h2l2 -1q14 -3 18.5 -6t10.5 -16q6 -12 6 -28q0 -19 -8 -35q-12 -21 -44 -21q-37 0 -43 24q-2 10 -2 13q0 18 27 46z" />
    <glyph glyph-name="k" unicode="k" horiz-adv-x="402" 
d="M91 659q7 10 11.5 12t17.5 2q18 0 31 -13l13 -14v-69q0 -68 2 -86q2 -17 -1 -18q-2 -1 -3 -8t-0.5 -13t2.5 -6q4 0 35 33q43 45 74 46q17 0 30 -14q15 -15 15 -21t-7 -19t-10 -13q-4 0 -35 -32t-40 -45q-10 -15 -8 -22q2 -5 29.5 -20.5t28.5 -16.5q4 -4 24 -14
q16 -7 32.5 -24.5t16.5 -27.5q0 -19 -38 -34q-19 -8 -24 -8q-4 0 -14 5q-14 7 -23 7q-8 0 -10 4q-4 6 -16 11q-7 3 -37 21q-23 14 -29 14q-5 0 -5 -10q0 -6 1 -11t1 -14q0 -25 -24 -45q-16 -13 -33 -13q-18 0 -32 14q-10 8 -12 14.5t-2 26.5q0 24 4 66q16 151 21 255
q4 83 14 100z" />
    <glyph glyph-name="l" unicode="l" horiz-adv-x="225" 
d="M104 638q6 3 16 3q20 0 33 -9q14 -13 18 -34t4 -89q0 -82 -8 -120q-10 -50 -10 -110q0 -25 3 -36q2 -10 2 -13q0 -9 -3 -18q-5 -16 -18 -18q-14 -2 -14 -6t-16 -4q-17 0 -25 5q-12 7 -21 19q-8 10 -9.5 17.5t-1.5 34.5q0 22 11 99q23 140 23 197q0 3 -0.5 8.5t-0.5 7.5
q-1 6 -1 17q0 40 18 49z" />
    <glyph glyph-name="m" unicode="m" horiz-adv-x="618" 
d="M251 486q12 6 18 6q3 0 26 -7q14 -5 19.5 -9.5t12.5 -18.5q10 -24 13 -36q1 -4 2 -7t2.5 -4.5t2.5 -1.5q6 3 26 23q41 39 73 39q11 0 27 -7q17 -9 17 -13q0 -2 10 -8q36 -20 62 -178q5 -32 5 -43q0 -5 -2 -31q-2 -34 -7 -43.5t-23 -19.5q-22 -11 -29 -11q-5 0 -22 15
l-16 15l2 37q0 3 0.5 10t0.5 10q0 24 -9 84q-16 95 -27 95q-10 0 -41 -43.5t-31 -57.5q0 -9 -8 -30q-10 -25 -17 -65q-10 -52 -14 -60t-21 -10q-16 -1 -23 -5q-1 -1 -5 -1q-8 0 -20.5 5.5t-16.5 11.5t-4 12q0 5 11 58q15 73 15 140q0 32 -5 37q-1 1 -2 1q-7 0 -19.5 -19
t-22.5 -46q-22 -51 -24 -56q-3 -12 -15.5 -44.5t-15.5 -44.5q-5 -20 -9.5 -26t-13.5 -6q-11 0 -12 -4q-3 -4 -14 -4q-23 0 -38 10q-17 11 -17 31q0 10 3 31q9 71 16 208q2 39 7.5 50t24.5 16q8 2 12 2q18 0 29 -20q3 -5 7.5 -10t6 -9.5t1.5 -12.5t-1 -14q-1 -5 -1 -14
q0 -10 4 -10q5 0 22 24q46 69 68 79z" />
    <glyph glyph-name="n" unicode="n" horiz-adv-x="438" 
d="M79 483q9 9 26 7q28 -4 36.5 -18.5t8.5 -58.5q0 -40 2 -40q7 0 38 34q57 60 95 60q20 0 41 -12q20 -11 28 -22.5t19 -48.5q13 -42 14 -97v-27q0 -90 -9 -112q0 -1 -3.5 -9t-5.5 -13q-11 -30 -46 -34q-2 0 -5.5 -0.5t-4.5 -0.5q-11 0 -20 9q-8 8 -8 18q0 9 1 15
q11 97 11 162q0 42 -4 61q-5 21 -13 21q-6 0 -25 -17q-57 -56 -82 -134q-1 -3 -18 -44q-2 -5 -4.5 -11.5t-4.5 -12.5t-3 -7q-3 -9 -15 -9t-14 -4q-1 -2 -9 -2q-29 0 -44 13q-7 6 -8 13t-1 34q0 33 7.5 109t8.5 107q2 61 11 71z" />
    <glyph glyph-name="o" unicode="o" horiz-adv-x="474" 
d="M220 379q-14 16 -18 16q-6 0 -25.5 -20.5t-24.5 -32.5q-15 -36 -15 -69q0 -8 2 -26q8 -47 40 -63q13 -7 31 -7q48 0 95 45q24 24 26 44q3 21 3 33q0 21 -14 35t-50 21q-23 5 -31.5 9t-18.5 15zM192 477q25 9 56 9q65 0 65 -36q0 -11 5 -15.5t22 -10.5t43 -30
q23 -20 31 -38t8 -49q0 -3 -0.5 -10.5t-0.5 -11.5q-2 -39 -11 -59t-34 -44q-72 -68 -156 -77q-24 -2 -32 -2q-49 0 -80 32q-54 54 -54 136q0 39 14 81q9 26 21.5 48t18.5 22h1q6 -2 6 4q0 4 27.5 24.5t32.5 20.5q3 0 17 6z" />
    <glyph glyph-name="p" unicode="p" horiz-adv-x="458" 
d="M312 396q-10 10 -48 10q-53 0 -74 -16q-5 -5 -5 -65v-60h18q24 0 46 -3l27 -3l16 19q31 37 31 83q0 24 -11 35zM189 477q25 9 53 9h25q54 -2 80 -14t48 -45q8 -11 9.5 -22t1.5 -50q0 -56 -6 -66q-13 -25 -14 -29q-35 -90 -105 -90q-34 0 -71 25q-16 11 -21 11
q-8 0 -8 -22q0 -17 -7 -68t-8 -65q-6 -91 -11 -109t-24 -23q-18 -5 -28 -5q-18 0 -32 12l-14 12l5 54q6 57 9 80q25 173 27 293q0 43 5 58.5t19 20.5q10 4 30 15.5t37 17.5z" />
    <glyph glyph-name="q" unicode="q" horiz-adv-x="601" 
d="M340 467q17 16 24 16q1 0 17 -4q19 -5 27 -18.5t8 -42.5q0 -10 -4 -52q-5 -53 -7 -174q0 -22 -0.5 -49.5t-0.5 -33.5q0 -35 6 -35q9 0 14 7q11 14 42 28.5t48 14.5q1 0 2.5 -0.5t2.5 -0.5q26 -7 26 -33q0 -18 -3 -24q-5 -6 -52 -39q-49 -34 -71 -56q-29 -29 -48 -29
q-13 0 -37 11t-32.5 20t-8.5 26q0 14 8 54q8 44 8 128q0 16 -1 16t-21 -12q-13 -8 -38.5 -18t-32.5 -10h-1q-2 2 -11 -3q-6 -3 -13 -3q-8 0 -23 3q-32 6 -49 16.5t-31 32.5q-27 40 -32 67q-2 12 -2 22q0 47 13 57q6 6 6 13q0 8 6 16q41 46 74 65.5t70 21.5h12q21 0 44 -11
q27 -12 27 -24q0 -8 -12 -22q-7 -9 -12.5 -11t-22.5 -2q-38 0 -77 -26q-38 -26 -38 -69q0 -39 23 -54q14 -10 29 -10q19 0 47 19q22 14 47.5 69t29.5 96q2 23 5 29.5t15 17.5z" />
    <glyph glyph-name="r" unicode="r" horiz-adv-x="418" 
d="M248 486q13 5 31 5q35 0 57 -13q13 -7 17 -12.5t7 -20.5q4 -16 4 -26q0 -11 -16 -26q-19 -16 -34 -16q-12 0 -19 9t-13 9t-21.5 -15.5t-28.5 -33.5q-16 -23 -39 -70t-23 -57q0 -4 -14 -46l-13 -38l-26 -3q-18 -2 -22 -2q-9 0 -17 3q-10 4 -17.5 15t-7.5 22v5
q27 144 30 233q1 33 3 39.5t13 15.5q12 11 21 11q1 0 3.5 -0.5t4.5 -0.5q20 -4 28.5 -9t13.5 -18q8 -17 11 -17t29 26t38 31z" />
    <glyph glyph-name="s" unicode="s" horiz-adv-x="351" 
d="M150 498q19 6 57 6q29 0 40 -4q20 -7 20 -26q0 -5 -1 -8q-3 -13 -12.5 -19.5t-34.5 -11.5q-45 -10 -61 -18.5t-16 -22.5q0 -1 0.5 -3t0.5 -4q6 -38 72 -55q37 -10 50.5 -17.5t22.5 -23.5l10 -18l-11 -33q-11 -34 -32.5 -57.5t-78.5 -64.5q-8 -6 -35 -13l-29 -7l-19 10
q-35 18 -35 50q0 12 7 20q12 15 43 15h7q17 0 23.5 2.5t21.5 16.5q31 28 31 39q0 3 -3 5t-23 6q-30 4 -56 23.5t-39 48.5q-17 39 -17 75q0 12 3 18q6 12 6 16q0 8 31 27.5t57 27.5z" />
    <glyph glyph-name="t" unicode="t" horiz-adv-x="371" 
d="M112 568q13 13 28 13q19 0 32.5 -17t13.5 -43q0 -22 8.5 -27.5t45.5 -5.5q40 0 56 -4q10 -3 13.5 -6.5t5.5 -13.5q0 -1 0.5 -3.5t0.5 -3.5q0 -39 -90 -48l-30 -4l-1 -54q0 -6 -0.5 -16.5t-0.5 -15.5q0 -76 10 -76q3 0 20 11q12 8 18 8t11 -2q18 -7 22 -11q8 -8 8 -21
q0 -16 -11 -30q-11 -15 -11 -18q0 -5 -14 -20.5t-24 -20.5q-8 -4 -38 -8q-3 0 -8 -0.5t-7 -0.5q-18 0 -27 7.5t-20 30.5q-13 25 -15.5 47.5t-2.5 103.5v92l-18 4q-32 9 -32 39q0 27 29 33l15 3v33q0 22 2 29t11 16z" />
    <glyph glyph-name="u" unicode="u" horiz-adv-x="493" 
d="M355 492q10 15 19 15q6 0 10 -1q39 -6 51 -57q4 -17 4 -29t-8 -41q-11 -40 -17 -50q-7 -12 -7 -20q0 -10 -3 -13q-4 -1 -17 -39q-12 -39 -24 -56q-13 -20 -16 -28q-3 -10 -34 -29t-60 -28q-18 -5 -44 -5q-40 0 -58 9t-42.5 34.5t-34.5 46.5q-21 41 -21 104q0 43 11 103
q8 40 11.5 51t12.5 20q11 11 18 11q2 0 10 -2q20 -6 28 -14.5t8 -25.5q0 -10 -5 -37q-7 -34 -7 -77q0 -54 10 -80q24 -60 66 -60q26 0 51 25q34 36 53 119q11 53 16 67q6 18 6 44q1 26 13 43z" />
    <glyph glyph-name="v" unicode="v" horiz-adv-x="465" 
d="M275 163q0 -1 -19 -23t-19 -24q0 -4 -20.5 -12.5t-37.5 -10.5q-5 -1 -13 -1q-10 0 -27 10q-20 13 -34 44q-26 56 -32 122q-6 53 -18 141q-2 11 -2 25q0 10 6 24q4 10 8.5 13t13.5 5q16 2 19 2h1q13 0 30 -25q7 -11 13 -43q31 -209 46 -209q3 0 30 31.5t39 50.5
q6 9 14.5 31t16.5 31t15 30t9 25q8 14 8 28q0 13 13 19q12 7 26 7q12 0 29 -9t19 -17q3 -9 3 -18q0 -23 -25 -73q-19 -37 -57 -97.5t-48 -68.5q-7 -7 -7 -8z" />
    <glyph glyph-name="w" unicode="w" horiz-adv-x="713" 
d="M593 503q3 6 14 6q14 0 32 -10q11 -6 14 -10.5t4 -17.5q1 -19 -6 -30q-23 -36 -35 -48q-4 -1 -19 -30q-14 -26 -21 -33q-6 -6 -25 -35.5t-19 -32.5q0 -7 -57.5 -65.5t-68.5 -63.5q-13 -5 -35 -5q-48 0 -64 13q-35 27 -56 56q-11 17 -17 17q-5 0 -13 -14q-9 -14 -28 -35
q-20 -23 -44 -27q-13 -3 -25 -3q-2 0 -5.5 0.5t-4.5 0.5q-10 3 -26.5 18.5t-21.5 27.5q-14 34 -14 111v28q4 137 18 152q9 10 27 10q13 0 25 -6q11 -5 12.5 -15t2.5 -67q2 -130 5 -138q2 -3 4 -3q8 0 24.5 24.5t26.5 52.5q7 21 27 35q17 10 23 10t15 -3q14 -5 20.5 -14
t12.5 -34q8 -35 30 -69.5t35 -34.5h2q45 16 109 104q44 61 44 65q0 7 23 35q21 26 26 41q8 30 21 30q6 0 8 7z" />
    <glyph glyph-name="x" unicode="x" horiz-adv-x="454" 
d="M164 468q3 3 10 3q17 0 45.5 -13t43.5 -28q13 -13 21 -13q6 0 18 6q10 6 32 6q17 0 27 -8.5t10 -22.5q0 -1 -0.5 -3.5t-0.5 -3.5q-5 -26 -31 -41q-17 -11 -17 -17q0 -5 14 -43q10 -26 17 -49q3 -12 8.5 -24t10.5 -27q9 -28 18 -52q10 -25 10 -57q0 -8 -2 -14
q-2 -5 -19.5 -9t-19.5 -6q-3 -2 -11 -2q-21 0 -34 13q-7 8 -14.5 28t-7.5 32q0 7 -16.5 59.5t-21.5 60.5q-3 4 -6 4q-20 0 -68 -92q-19 -37 -38 -61l-17 -21l-25 3q-26 3 -35 13q-9 11 -9 22q0 10 6 22q27 47 54 81q77 99 86 121q3 9 3 13q0 5 -6 17q-10 17 -27 30
q-27 22 -27 39q0 9 10 13q6 2 6 10t3 11z" />
    <glyph glyph-name="y" unicode="y" horiz-adv-x="385" 
d="M69 402q-10 24 -10 40q0 29 43 29q19 0 24 -2t11 -10q6 -7 30.5 -61t31.5 -72q2 -5 4 -5q5 0 23 43q16 40 26.5 54.5t24.5 19.5q10 2 13 2q17 0 29 -10.5t12 -25.5q0 -5 -1 -8q-2 -7 -14.5 -36t-13.5 -33q-3 -8 -14.5 -40t-16.5 -50q-10 -32 -14 -38t-15 -34t-13 -40
q-4 -16 -6 -19q-7 -12 -32 -93q-6 -21 -22 -61q-14 -35 -14 -43q0 -11 -16.5 -19t-36.5 -8q-19 0 -30 7q-17 11 -17 30q0 11 6 23q9 16 16 41q4 14 9 22t8 17q2 11 13 35q17 38 43 114q8 21 8 28q0 5 -6 10q-9 8 -27.5 48.5t-30.5 78.5q-9 29 -25 66z" />
    <glyph glyph-name="z" unicode="z" horiz-adv-x="522" 
d="M105 443q0 15 16.5 23.5t37.5 8.5h4q21 0 60.5 -5.5t49.5 -9.5q22 -7 26 -8q11 -2 31.5 -20t26.5 -30q5 -12 5 -26q0 -12 -1 -21q-4 -34 -9 -45q-6 -12 -53 -56t-70 -59q-24 -15 -24 -21q0 -4 45 -4q8 0 126 2l70 1l11 -11q11 -11 11 -26q0 -11 -2 -18q-3 -13 -22 -23
q-13 -7 -29 -8t-83 -2h-32q-110 0 -158 11q-20 5 -20 8q0 2 -9 6q-9 2 -31.5 23.5t-25.5 30.5q-1 5 5 14.5t6 13.5q0 3 9 7q3 1 66 38q41 25 76 54t35 39q0 3 5 16.5t5 18.5q0 8 -18.5 17t-30.5 9q-7 0 -82 15q-8 1 -17.5 14t-9.5 23z" />
    <glyph glyph-name="nbsp" unicode="&#xa0;" 
 />
    <glyph glyph-name="exclamdown" unicode="&#xa1;" horiz-adv-x="220" 
d="M91 534q11 8 18 8q6 0 18 -6q10 -5 15.5 -23t10.5 -23q6 -7 6.5 -11.5t-3.5 -16.5q-6 -20 -17 -36l-12 -18l9 -18q10 -20 15 -25q6 -7 10 -109q3 -99 8 -126q1 -5 1 -16q0 -28 -8 -62t-18 -47q-10 -11 -25 -11q-26 0 -36 10.5t-10 38.5q0 13 1 20q1 8 1 21q0 16 -3 18
t1 11q2 3 2 17q0 21 -2 37q-7 81 -7 87q-2 44 -7 76q-4 28 -4 44t10 32l10 16l-12 24l-13 23l13 28q14 27 28 37z" />
  </font>
</defs>
</svg>
